<?xml version="1.0" standalone="no"?>
<!DOCTYPE svg PUBLIC "-//W3C//DTD SVG 20010904//EN"
 "http://www.w3.org/TR/2001/REC-SVG-20010904/DTD/svg10.dtd">
<svg version="1.0" xmlns="http://www.w3.org/2000/svg"
 width="500.000000pt" height="500.000000pt" viewBox="0 0 500.000000 500.000000"
 preserveAspectRatio="xMidYMid meet">

<g transform="translate(0.000000,500.000000) scale(0.100000,-0.100000)"
fill="#000000" stroke="none">
<path d="M2280 4764 c-14 -2 -65 -11 -113 -20 -302 -53 -588 -220 -758 -443
-67 -89 -142 -244 -175 -366 -26 -92 -28 -115 -28 -295 -1 -175 1 -204 23
-285 58 -222 176 -395 377 -555 79 -63 222 -155 229 -148 14 14 165 363 162
372 -3 6 -47 37 -99 70 -395 244 -572 562 -502 904 48 236 221 409 484 485
116 34 288 51 421 43 564 -34 959 -317 1230 -881 44 -92 150 -385 185 -512 2
-7 13 -13 24 -13 20 0 20 2 20 825 l0 825 -24 0 c-21 0 -33 -22 -112 -199
l-88 -198 -76 61 c-178 145 -412 252 -670 306 -82 18 -146 23 -295 26 -104 1
-201 1 -215 -2z"/>
<path d="M2161 2719 c-44 -100 -81 -185 -81 -190 0 -9 121 -72 126 -66 5 5
164 363 164 369 0 7 -112 68 -123 68 -2 0 -41 -81 -86 -181z"/>
<path d="M2715 2458 c-42 -95 -79 -178 -82 -184 -3 -9 135 -80 142 -72 1 2 28
62 60 133 32 72 68 154 81 183 l24 53 -65 30 c-35 16 -69 29 -73 29 -5 0 -44
-78 -87 -172z"/>
<path d="M3155 2398 c-12 -29 -48 -109 -79 -177 -31 -69 -56 -130 -56 -136 0
-6 17 -19 38 -29 141 -67 356 -220 452 -322 162 -174 231 -346 231 -579 -1
-369 -215 -609 -619 -696 -125 -26 -422 -37 -572 -20 -764 87 -1263 608 -1444
1506 -13 66 -27 137 -30 158 -6 31 -11 37 -31 37 -16 0 -25 -6 -25 -15 0 -8
41 -381 91 -827 58 -523 95 -815 102 -820 7 -4 21 -8 32 -8 34 0 242 -56 441
-119 411 -129 505 -145 839 -146 279 0 338 7 529 61 347 98 629 324 781 624
137 271 164 606 72 876 -14 38 -32 86 -42 105 -71 139 -234 310 -400 420 -95
63 -263 159 -279 159 -4 0 -18 -24 -31 -52z"/>
</g>
</svg>
